<mxfile host="app.diagrams.net" modified="2022-02-07T04:35:22.622Z" agent="5.0 (Macintosh; Intel Mac OS X 10_15_7) AppleWebKit/605.1.15 (KHTML, like Gecko) Version/15.1 Safari/605.1.15" etag="QzDViaEeJjCkbhdwDV4Y" version="16.5.2" type="github">
  <diagram id="C5RBs43oDa-KdzZeNtuy" name="Page-1">
    <mxGraphModel dx="788" dy="1707" grid="1" gridSize="10" guides="1" tooltips="1" connect="1" arrows="1" fold="1" page="1" pageScale="1" pageWidth="827" pageHeight="1169" math="0" shadow="0">
      <root>
        <mxCell id="WIyWlLk6GJQsqaUBKTNV-0" />
        <mxCell id="WIyWlLk6GJQsqaUBKTNV-1" parent="WIyWlLk6GJQsqaUBKTNV-0" />
        <mxCell id="v5Hl_151OZphirrbcNyD-2" value="Comunidad" style="rounded=0;whiteSpace=wrap;html=1;fillColor=#e1d5e7;strokeColor=#9673a6;" parent="WIyWlLk6GJQsqaUBKTNV-1" vertex="1">
          <mxGeometry x="180" y="230" width="120" height="60" as="geometry" />
        </mxCell>
        <mxCell id="v5Hl_151OZphirrbcNyD-3" value="Tipo de comunidad" style="ellipse;whiteSpace=wrap;html=1;fillColor=#f5f5f5;fontColor=#333333;strokeColor=#666666;" parent="WIyWlLk6GJQsqaUBKTNV-1" vertex="1">
          <mxGeometry y="227.5" width="100" height="60" as="geometry" />
        </mxCell>
        <mxCell id="v5Hl_151OZphirrbcNyD-4" value="Fecha" style="ellipse;whiteSpace=wrap;html=1;fillColor=#dae8fc;strokeColor=#6c8ebf;" parent="WIyWlLk6GJQsqaUBKTNV-1" vertex="1">
          <mxGeometry x="510" y="345" width="100" height="60" as="geometry" />
        </mxCell>
        <mxCell id="v5Hl_151OZphirrbcNyD-5" value="Nombre" style="ellipse;whiteSpace=wrap;html=1;fillColor=#f5f5f5;fontColor=#333333;strokeColor=#666666;" parent="WIyWlLk6GJQsqaUBKTNV-1" vertex="1">
          <mxGeometry x="370" y="445" width="100" height="57.5" as="geometry" />
        </mxCell>
        <mxCell id="v5Hl_151OZphirrbcNyD-6" value="Objetivo" style="ellipse;whiteSpace=wrap;html=1;fillColor=#f5f5f5;fontColor=#333333;strokeColor=#666666;" parent="WIyWlLk6GJQsqaUBKTNV-1" vertex="1">
          <mxGeometry x="410" y="372.5" width="100" height="60" as="geometry" />
        </mxCell>
        <mxCell id="v5Hl_151OZphirrbcNyD-7" value="Facebook" style="ellipse;whiteSpace=wrap;html=1;fillColor=#d5e8d4;strokeColor=#82b366;" parent="WIyWlLk6GJQsqaUBKTNV-1" vertex="1">
          <mxGeometry x="480" y="-30" width="100" height="60" as="geometry" />
        </mxCell>
        <mxCell id="v5Hl_151OZphirrbcNyD-9" value="Nombre" style="ellipse;whiteSpace=wrap;html=1;fillColor=#f5f5f5;fontColor=#333333;strokeColor=#666666;" parent="WIyWlLk6GJQsqaUBKTNV-1" vertex="1">
          <mxGeometry x="60" y="130" width="100" height="50" as="geometry" />
        </mxCell>
        <mxCell id="v5Hl_151OZphirrbcNyD-11" value="dirección id" style="ellipse;whiteSpace=wrap;html=1;fillColor=#f8cecc;strokeColor=#b85450;" parent="WIyWlLk6GJQsqaUBKTNV-1" vertex="1">
          <mxGeometry x="390" y="120" width="100" height="60" as="geometry" />
        </mxCell>
        <mxCell id="v5Hl_151OZphirrbcNyD-12" value="" style="endArrow=none;html=1;rounded=0;exitX=1;exitY=0;exitDx=0;exitDy=0;entryX=0;entryY=1;entryDx=0;entryDy=0;" parent="WIyWlLk6GJQsqaUBKTNV-1" source="v5Hl_151OZphirrbcNyD-2" target="v5Hl_151OZphirrbcNyD-11" edge="1">
          <mxGeometry width="50" height="50" relative="1" as="geometry">
            <mxPoint x="390" y="350" as="sourcePoint" />
            <mxPoint x="440" y="300" as="targetPoint" />
          </mxGeometry>
        </mxCell>
        <mxCell id="v5Hl_151OZphirrbcNyD-16" value="" style="endArrow=none;html=1;rounded=0;exitX=0.5;exitY=0;exitDx=0;exitDy=0;" parent="WIyWlLk6GJQsqaUBKTNV-1" source="v5Hl_151OZphirrbcNyD-2" edge="1">
          <mxGeometry width="50" height="50" relative="1" as="geometry">
            <mxPoint x="210" y="240" as="sourcePoint" />
            <mxPoint x="240" y="70" as="targetPoint" />
          </mxGeometry>
        </mxCell>
        <mxCell id="v5Hl_151OZphirrbcNyD-17" value="" style="endArrow=none;html=1;rounded=0;exitX=1;exitY=0.5;exitDx=0;exitDy=0;entryX=0;entryY=0.5;entryDx=0;entryDy=0;" parent="WIyWlLk6GJQsqaUBKTNV-1" source="v5Hl_151OZphirrbcNyD-3" target="v5Hl_151OZphirrbcNyD-2" edge="1">
          <mxGeometry width="50" height="50" relative="1" as="geometry">
            <mxPoint x="100" y="310" as="sourcePoint" />
            <mxPoint x="150" y="260" as="targetPoint" />
          </mxGeometry>
        </mxCell>
        <mxCell id="v5Hl_151OZphirrbcNyD-18" value="" style="endArrow=none;html=1;rounded=0;exitX=0.5;exitY=1;exitDx=0;exitDy=0;entryX=0;entryY=0;entryDx=0;entryDy=0;" parent="WIyWlLk6GJQsqaUBKTNV-1" source="v5Hl_151OZphirrbcNyD-9" target="v5Hl_151OZphirrbcNyD-2" edge="1">
          <mxGeometry width="50" height="50" relative="1" as="geometry">
            <mxPoint x="140" y="240" as="sourcePoint" />
            <mxPoint x="190" y="190" as="targetPoint" />
          </mxGeometry>
        </mxCell>
        <mxCell id="v5Hl_151OZphirrbcNyD-20" value="Evento" style="rounded=0;whiteSpace=wrap;html=1;fillColor=#e1d5e7;strokeColor=#9673a6;" parent="WIyWlLk6GJQsqaUBKTNV-1" vertex="1">
          <mxGeometry x="523" y="495" width="120" height="60" as="geometry" />
        </mxCell>
        <mxCell id="v5Hl_151OZphirrbcNyD-21" value="Realizar" style="rhombus;whiteSpace=wrap;html=1;fillColor=#ffe6cc;strokeColor=#d79b00;" parent="WIyWlLk6GJQsqaUBKTNV-1" vertex="1">
          <mxGeometry x="185" y="395" width="110" height="65" as="geometry" />
        </mxCell>
        <mxCell id="v5Hl_151OZphirrbcNyD-23" value="" style="endArrow=none;html=1;rounded=0;entryX=0;entryY=0.5;entryDx=0;entryDy=0;" parent="WIyWlLk6GJQsqaUBKTNV-1" target="v5Hl_151OZphirrbcNyD-20" edge="1">
          <mxGeometry width="50" height="50" relative="1" as="geometry">
            <mxPoint x="240" y="520" as="sourcePoint" />
            <mxPoint x="520" y="525" as="targetPoint" />
          </mxGeometry>
        </mxCell>
        <mxCell id="v5Hl_151OZphirrbcNyD-24" value="En línea" style="ellipse;whiteSpace=wrap;html=1;fillColor=#d5e8d4;strokeColor=#82b366;" parent="WIyWlLk6GJQsqaUBKTNV-1" vertex="1">
          <mxGeometry x="740" y="437.5" width="100" height="60" as="geometry" />
        </mxCell>
        <mxCell id="v5Hl_151OZphirrbcNyD-25" value="Presencial" style="ellipse;whiteSpace=wrap;html=1;fillColor=#d5e8d4;strokeColor=#82b366;" parent="WIyWlLk6GJQsqaUBKTNV-1" vertex="1">
          <mxGeometry x="720" y="355" width="100" height="60" as="geometry" />
        </mxCell>
        <mxCell id="v5Hl_151OZphirrbcNyD-26" value="Hora" style="ellipse;whiteSpace=wrap;html=1;fillColor=#dae8fc;strokeColor=#6c8ebf;" parent="WIyWlLk6GJQsqaUBKTNV-1" vertex="1">
          <mxGeometry x="620" y="335" width="100" height="60" as="geometry" />
        </mxCell>
        <mxCell id="v5Hl_151OZphirrbcNyD-27" value="" style="endArrow=none;html=1;rounded=0;exitX=0.75;exitY=0;exitDx=0;exitDy=0;entryX=0.294;entryY=0.987;entryDx=0;entryDy=0;entryPerimeter=0;" parent="WIyWlLk6GJQsqaUBKTNV-1" source="v5Hl_151OZphirrbcNyD-20" target="v5Hl_151OZphirrbcNyD-26" edge="1">
          <mxGeometry width="50" height="50" relative="1" as="geometry">
            <mxPoint x="693" y="455" as="sourcePoint" />
            <mxPoint x="743" y="405" as="targetPoint" />
          </mxGeometry>
        </mxCell>
        <mxCell id="v5Hl_151OZphirrbcNyD-28" value="" style="endArrow=none;html=1;rounded=0;exitX=1;exitY=0.25;exitDx=0;exitDy=0;entryX=0;entryY=1;entryDx=0;entryDy=0;" parent="WIyWlLk6GJQsqaUBKTNV-1" source="v5Hl_151OZphirrbcNyD-20" target="v5Hl_151OZphirrbcNyD-24" edge="1">
          <mxGeometry width="50" height="50" relative="1" as="geometry">
            <mxPoint x="713" y="565" as="sourcePoint" />
            <mxPoint x="763" y="515" as="targetPoint" />
          </mxGeometry>
        </mxCell>
        <mxCell id="v5Hl_151OZphirrbcNyD-29" value="" style="endArrow=none;html=1;rounded=0;entryX=0;entryY=0;entryDx=0;entryDy=0;" parent="WIyWlLk6GJQsqaUBKTNV-1" source="v5Hl_151OZphirrbcNyD-5" target="v5Hl_151OZphirrbcNyD-20" edge="1">
          <mxGeometry width="50" height="50" relative="1" as="geometry">
            <mxPoint x="500" y="455" as="sourcePoint" />
            <mxPoint x="550" y="405" as="targetPoint" />
          </mxGeometry>
        </mxCell>
        <mxCell id="v5Hl_151OZphirrbcNyD-30" value="" style="endArrow=none;html=1;rounded=0;exitX=0.5;exitY=0;exitDx=0;exitDy=0;entryX=0.5;entryY=1;entryDx=0;entryDy=0;" parent="WIyWlLk6GJQsqaUBKTNV-1" source="v5Hl_151OZphirrbcNyD-20" target="v5Hl_151OZphirrbcNyD-4" edge="1">
          <mxGeometry width="50" height="50" relative="1" as="geometry">
            <mxPoint x="573" y="455" as="sourcePoint" />
            <mxPoint x="623" y="405" as="targetPoint" />
          </mxGeometry>
        </mxCell>
        <mxCell id="v5Hl_151OZphirrbcNyD-31" value="" style="endArrow=none;html=1;rounded=0;exitX=1;exitY=0;exitDx=0;exitDy=0;entryX=0;entryY=1;entryDx=0;entryDy=0;" parent="WIyWlLk6GJQsqaUBKTNV-1" source="v5Hl_151OZphirrbcNyD-20" target="v5Hl_151OZphirrbcNyD-25" edge="1">
          <mxGeometry width="50" height="50" relative="1" as="geometry">
            <mxPoint x="718" y="492.5" as="sourcePoint" />
            <mxPoint x="768" y="442.5" as="targetPoint" />
          </mxGeometry>
        </mxCell>
        <mxCell id="v5Hl_151OZphirrbcNyD-32" value="" style="endArrow=none;html=1;rounded=0;exitX=0.25;exitY=0;exitDx=0;exitDy=0;" parent="WIyWlLk6GJQsqaUBKTNV-1" source="v5Hl_151OZphirrbcNyD-20" target="v5Hl_151OZphirrbcNyD-6" edge="1">
          <mxGeometry width="50" height="50" relative="1" as="geometry">
            <mxPoint x="493" y="460" as="sourcePoint" />
            <mxPoint x="543" y="410" as="targetPoint" />
          </mxGeometry>
        </mxCell>
        <mxCell id="v5Hl_151OZphirrbcNyD-34" value="Tener" style="rhombus;whiteSpace=wrap;html=1;fillColor=#ffe6cc;strokeColor=#d79b00;" parent="WIyWlLk6GJQsqaUBKTNV-1" vertex="1">
          <mxGeometry x="528" y="635" width="110" height="70" as="geometry" />
        </mxCell>
        <mxCell id="v5Hl_151OZphirrbcNyD-35" value="" style="endArrow=none;html=1;rounded=0;" parent="WIyWlLk6GJQsqaUBKTNV-1" edge="1">
          <mxGeometry width="50" height="50" relative="1" as="geometry">
            <mxPoint x="583" y="635" as="sourcePoint" />
            <mxPoint x="583" y="555" as="targetPoint" />
          </mxGeometry>
        </mxCell>
        <mxCell id="v5Hl_151OZphirrbcNyD-36" value="Requerimientos" style="rounded=0;whiteSpace=wrap;html=1;fillColor=#e1d5e7;strokeColor=#9673a6;" parent="WIyWlLk6GJQsqaUBKTNV-1" vertex="1">
          <mxGeometry x="523" y="775" width="120" height="60" as="geometry" />
        </mxCell>
        <mxCell id="v5Hl_151OZphirrbcNyD-37" value="" style="endArrow=none;html=1;rounded=0;exitX=0.5;exitY=0;exitDx=0;exitDy=0;" parent="WIyWlLk6GJQsqaUBKTNV-1" source="v5Hl_151OZphirrbcNyD-36" edge="1">
          <mxGeometry width="50" height="50" relative="1" as="geometry">
            <mxPoint x="533" y="755" as="sourcePoint" />
            <mxPoint x="583" y="705" as="targetPoint" />
          </mxGeometry>
        </mxCell>
        <mxCell id="v5Hl_151OZphirrbcNyD-39" value="Asistir" style="rhombus;whiteSpace=wrap;html=1;fillColor=#ffe6cc;strokeColor=#d79b00;" parent="WIyWlLk6GJQsqaUBKTNV-1" vertex="1">
          <mxGeometry x="880" y="367.5" width="110" height="70" as="geometry" />
        </mxCell>
        <mxCell id="v5Hl_151OZphirrbcNyD-40" value="" style="endArrow=none;html=1;rounded=0;exitX=1;exitY=0.5;exitDx=0;exitDy=0;" parent="WIyWlLk6GJQsqaUBKTNV-1" source="v5Hl_151OZphirrbcNyD-20" edge="1">
          <mxGeometry width="50" height="50" relative="1" as="geometry">
            <mxPoint x="650" y="525" as="sourcePoint" />
            <mxPoint x="935" y="525" as="targetPoint" />
          </mxGeometry>
        </mxCell>
        <mxCell id="v5Hl_151OZphirrbcNyD-41" value="" style="endArrow=none;html=1;rounded=0;exitX=0.5;exitY=1;exitDx=0;exitDy=0;" parent="WIyWlLk6GJQsqaUBKTNV-1" source="v5Hl_151OZphirrbcNyD-2" target="v5Hl_151OZphirrbcNyD-21" edge="1">
          <mxGeometry width="50" height="50" relative="1" as="geometry">
            <mxPoint x="240" y="300" as="sourcePoint" />
            <mxPoint x="463" y="260" as="targetPoint" />
          </mxGeometry>
        </mxCell>
        <mxCell id="v5Hl_151OZphirrbcNyD-42" value="" style="endArrow=none;html=1;rounded=0;entryX=0.5;entryY=1;entryDx=0;entryDy=0;" parent="WIyWlLk6GJQsqaUBKTNV-1" target="v5Hl_151OZphirrbcNyD-21" edge="1">
          <mxGeometry width="50" height="50" relative="1" as="geometry">
            <mxPoint x="240" y="520" as="sourcePoint" />
            <mxPoint x="680" y="500" as="targetPoint" />
          </mxGeometry>
        </mxCell>
        <mxCell id="v5Hl_151OZphirrbcNyD-43" value="Personas" style="rounded=0;whiteSpace=wrap;html=1;fillColor=#e1d5e7;strokeColor=#9673a6;" parent="WIyWlLk6GJQsqaUBKTNV-1" vertex="1">
          <mxGeometry x="875" y="230" width="120" height="60" as="geometry" />
        </mxCell>
        <mxCell id="v5Hl_151OZphirrbcNyD-44" value="" style="endArrow=none;html=1;rounded=0;exitX=0.5;exitY=1;exitDx=0;exitDy=0;" parent="WIyWlLk6GJQsqaUBKTNV-1" source="v5Hl_151OZphirrbcNyD-39" edge="1">
          <mxGeometry width="50" height="50" relative="1" as="geometry">
            <mxPoint x="940" y="532.5" as="sourcePoint" />
            <mxPoint x="935" y="525" as="targetPoint" />
            <Array as="points" />
          </mxGeometry>
        </mxCell>
        <mxCell id="v5Hl_151OZphirrbcNyD-48" value="" style="endArrow=none;html=1;rounded=0;exitX=0.5;exitY=0;exitDx=0;exitDy=0;entryX=0.5;entryY=1;entryDx=0;entryDy=0;" parent="WIyWlLk6GJQsqaUBKTNV-1" source="v5Hl_151OZphirrbcNyD-39" target="v5Hl_151OZphirrbcNyD-43" edge="1">
          <mxGeometry width="50" height="50" relative="1" as="geometry">
            <mxPoint x="900" y="350" as="sourcePoint" />
            <mxPoint x="935" y="310" as="targetPoint" />
          </mxGeometry>
        </mxCell>
        <mxCell id="v5Hl_151OZphirrbcNyD-50" value="Tener&lt;br&gt;" style="rhombus;whiteSpace=wrap;html=1;fillColor=#ffe6cc;strokeColor=#d79b00;" parent="WIyWlLk6GJQsqaUBKTNV-1" vertex="1">
          <mxGeometry x="1050" y="223.75" width="110" height="72.5" as="geometry" />
        </mxCell>
        <mxCell id="v5Hl_151OZphirrbcNyD-51" value="" style="endArrow=none;html=1;rounded=0;entryX=0;entryY=0.5;entryDx=0;entryDy=0;exitX=1;exitY=0.5;exitDx=0;exitDy=0;" parent="WIyWlLk6GJQsqaUBKTNV-1" source="v5Hl_151OZphirrbcNyD-43" target="v5Hl_151OZphirrbcNyD-50" edge="1">
          <mxGeometry width="50" height="50" relative="1" as="geometry">
            <mxPoint x="1000" y="370" as="sourcePoint" />
            <mxPoint x="1050" y="320" as="targetPoint" />
          </mxGeometry>
        </mxCell>
        <mxCell id="v5Hl_151OZphirrbcNyD-52" value="Dirección&amp;nbsp;" style="rounded=0;whiteSpace=wrap;html=1;fillColor=#e1d5e7;strokeColor=#9673a6;" parent="WIyWlLk6GJQsqaUBKTNV-1" vertex="1">
          <mxGeometry x="1220" y="230" width="120" height="60" as="geometry" />
        </mxCell>
        <mxCell id="v5Hl_151OZphirrbcNyD-53" value="" style="endArrow=none;html=1;rounded=0;entryX=0;entryY=0.5;entryDx=0;entryDy=0;" parent="WIyWlLk6GJQsqaUBKTNV-1" source="v5Hl_151OZphirrbcNyD-50" target="v5Hl_151OZphirrbcNyD-52" edge="1">
          <mxGeometry width="50" height="50" relative="1" as="geometry">
            <mxPoint x="1160" y="360" as="sourcePoint" />
            <mxPoint x="1210" y="310" as="targetPoint" />
          </mxGeometry>
        </mxCell>
        <mxCell id="v5Hl_151OZphirrbcNyD-54" value="c.p" style="ellipse;whiteSpace=wrap;html=1;fillColor=#d5e8d4;strokeColor=#82b366;" parent="WIyWlLk6GJQsqaUBKTNV-1" vertex="1">
          <mxGeometry x="1370" y="223.75" width="100" height="60" as="geometry" />
        </mxCell>
        <mxCell id="v5Hl_151OZphirrbcNyD-56" value="Ciudad" style="ellipse;whiteSpace=wrap;html=1;fillColor=#dae8fc;strokeColor=#6c8ebf;" parent="WIyWlLk6GJQsqaUBKTNV-1" vertex="1">
          <mxGeometry x="1225" y="560" width="100" height="60" as="geometry" />
        </mxCell>
        <mxCell id="v5Hl_151OZphirrbcNyD-57" value="País" style="ellipse;whiteSpace=wrap;html=1;fillColor=#dae8fc;strokeColor=#6c8ebf;" parent="WIyWlLk6GJQsqaUBKTNV-1" vertex="1">
          <mxGeometry x="1080" y="480" width="100" height="60" as="geometry" />
        </mxCell>
        <mxCell id="v5Hl_151OZphirrbcNyD-58" value="Estado" style="ellipse;whiteSpace=wrap;html=1;fillColor=#dae8fc;strokeColor=#6c8ebf;" parent="WIyWlLk6GJQsqaUBKTNV-1" vertex="1">
          <mxGeometry x="1380" y="560" width="100" height="60" as="geometry" />
        </mxCell>
        <mxCell id="53uy1DGqB0YoxCEGLnz8-0" value="Calle" style="ellipse;whiteSpace=wrap;html=1;fillColor=#d5e8d4;strokeColor=#82b366;" vertex="1" parent="WIyWlLk6GJQsqaUBKTNV-1">
          <mxGeometry x="1160" y="130" width="100" height="60" as="geometry" />
        </mxCell>
        <mxCell id="53uy1DGqB0YoxCEGLnz8-3" value="Colonia" style="ellipse;whiteSpace=wrap;html=1;fillColor=#d5e8d4;strokeColor=#82b366;" vertex="1" parent="WIyWlLk6GJQsqaUBKTNV-1">
          <mxGeometry x="1310" y="120" width="100" height="60" as="geometry" />
        </mxCell>
        <mxCell id="53uy1DGqB0YoxCEGLnz8-6" value="Tener" style="rhombus;whiteSpace=wrap;html=1;fillColor=#ffe6cc;strokeColor=#d79b00;" vertex="1" parent="WIyWlLk6GJQsqaUBKTNV-1">
          <mxGeometry x="340" y="40" width="110" height="65" as="geometry" />
        </mxCell>
        <mxCell id="53uy1DGqB0YoxCEGLnz8-7" value="" style="endArrow=none;html=1;rounded=0;" edge="1" parent="WIyWlLk6GJQsqaUBKTNV-1">
          <mxGeometry width="50" height="50" relative="1" as="geometry">
            <mxPoint x="340" y="70" as="sourcePoint" />
            <mxPoint x="240" y="70" as="targetPoint" />
          </mxGeometry>
        </mxCell>
        <mxCell id="53uy1DGqB0YoxCEGLnz8-8" value="" style="endArrow=none;html=1;rounded=0;exitX=0;exitY=0.5;exitDx=0;exitDy=0;entryX=1;entryY=0.5;entryDx=0;entryDy=0;" edge="1" parent="WIyWlLk6GJQsqaUBKTNV-1" target="53uy1DGqB0YoxCEGLnz8-6">
          <mxGeometry width="50" height="50" relative="1" as="geometry">
            <mxPoint x="560" y="72.5" as="sourcePoint" />
            <mxPoint x="249.9999999999999" y="80" as="targetPoint" />
          </mxGeometry>
        </mxCell>
        <mxCell id="53uy1DGqB0YoxCEGLnz8-9" value="Red social" style="rounded=0;whiteSpace=wrap;html=1;fillColor=#e1d5e7;strokeColor=#9673a6;" vertex="1" parent="WIyWlLk6GJQsqaUBKTNV-1">
          <mxGeometry x="560" y="42.5" width="120" height="60" as="geometry" />
        </mxCell>
        <mxCell id="53uy1DGqB0YoxCEGLnz8-10" value="Twitter" style="ellipse;whiteSpace=wrap;html=1;fillColor=#d5e8d4;strokeColor=#82b366;" vertex="1" parent="WIyWlLk6GJQsqaUBKTNV-1">
          <mxGeometry x="740" y="60" width="100" height="60" as="geometry" />
        </mxCell>
        <mxCell id="53uy1DGqB0YoxCEGLnz8-11" value="Linkedin" style="ellipse;whiteSpace=wrap;html=1;fillColor=#d5e8d4;strokeColor=#82b366;" vertex="1" parent="WIyWlLk6GJQsqaUBKTNV-1">
          <mxGeometry x="600" y="-50" width="100" height="60" as="geometry" />
        </mxCell>
        <mxCell id="53uy1DGqB0YoxCEGLnz8-12" value="Instagram" style="ellipse;whiteSpace=wrap;html=1;fillColor=#d5e8d4;strokeColor=#82b366;" vertex="1" parent="WIyWlLk6GJQsqaUBKTNV-1">
          <mxGeometry x="700" y="-20" width="100" height="60" as="geometry" />
        </mxCell>
        <mxCell id="53uy1DGqB0YoxCEGLnz8-13" value="dirección id" style="ellipse;whiteSpace=wrap;html=1;fillColor=#f8cecc;strokeColor=#b85450;" vertex="1" parent="WIyWlLk6GJQsqaUBKTNV-1">
          <mxGeometry x="690" y="140" width="100" height="60" as="geometry" />
        </mxCell>
        <mxCell id="53uy1DGqB0YoxCEGLnz8-14" value="" style="endArrow=none;html=1;rounded=0;exitX=1;exitY=1;exitDx=0;exitDy=0;entryX=0.271;entryY=0.083;entryDx=0;entryDy=0;entryPerimeter=0;" edge="1" parent="WIyWlLk6GJQsqaUBKTNV-1" source="53uy1DGqB0YoxCEGLnz8-9" target="53uy1DGqB0YoxCEGLnz8-13">
          <mxGeometry width="50" height="50" relative="1" as="geometry">
            <mxPoint x="309.9999999999999" y="239.99999999999977" as="sourcePoint" />
            <mxPoint x="414.56272537550626" y="181.16392790073883" as="targetPoint" />
          </mxGeometry>
        </mxCell>
        <mxCell id="53uy1DGqB0YoxCEGLnz8-15" value="" style="endArrow=none;html=1;rounded=0;exitX=1;exitY=0.5;exitDx=0;exitDy=0;entryX=0;entryY=0.5;entryDx=0;entryDy=0;" edge="1" parent="WIyWlLk6GJQsqaUBKTNV-1" source="53uy1DGqB0YoxCEGLnz8-9" target="53uy1DGqB0YoxCEGLnz8-10">
          <mxGeometry width="50" height="50" relative="1" as="geometry">
            <mxPoint x="319.9999999999999" y="249.99999999999977" as="sourcePoint" />
            <mxPoint x="424.56272537550626" y="191.16392790073883" as="targetPoint" />
          </mxGeometry>
        </mxCell>
        <mxCell id="53uy1DGqB0YoxCEGLnz8-16" value="" style="endArrow=none;html=1;rounded=0;exitX=0;exitY=1;exitDx=0;exitDy=0;entryX=1;entryY=0;entryDx=0;entryDy=0;" edge="1" parent="WIyWlLk6GJQsqaUBKTNV-1" source="53uy1DGqB0YoxCEGLnz8-12" target="53uy1DGqB0YoxCEGLnz8-9">
          <mxGeometry width="50" height="50" relative="1" as="geometry">
            <mxPoint x="690" y="82.49999999999977" as="sourcePoint" />
            <mxPoint x="749.9999999999973" y="99.99999999999977" as="targetPoint" />
          </mxGeometry>
        </mxCell>
        <mxCell id="53uy1DGqB0YoxCEGLnz8-17" value="" style="endArrow=none;html=1;rounded=0;exitX=0.5;exitY=1;exitDx=0;exitDy=0;" edge="1" parent="WIyWlLk6GJQsqaUBKTNV-1" source="53uy1DGqB0YoxCEGLnz8-11">
          <mxGeometry width="50" height="50" relative="1" as="geometry">
            <mxPoint x="700" y="92.49999999999977" as="sourcePoint" />
            <mxPoint x="650" y="40" as="targetPoint" />
          </mxGeometry>
        </mxCell>
        <mxCell id="53uy1DGqB0YoxCEGLnz8-18" value="" style="endArrow=none;html=1;rounded=0;exitX=1;exitY=1;exitDx=0;exitDy=0;entryX=0.25;entryY=0;entryDx=0;entryDy=0;" edge="1" parent="WIyWlLk6GJQsqaUBKTNV-1" source="v5Hl_151OZphirrbcNyD-7" target="53uy1DGqB0YoxCEGLnz8-9">
          <mxGeometry width="50" height="50" relative="1" as="geometry">
            <mxPoint x="710" y="102.49999999999977" as="sourcePoint" />
            <mxPoint x="769.9999999999973" y="119.99999999999977" as="targetPoint" />
          </mxGeometry>
        </mxCell>
        <mxCell id="53uy1DGqB0YoxCEGLnz8-19" value="Dirección &amp;nbsp;global" style="rounded=0;whiteSpace=wrap;html=1;fillColor=#e1d5e7;strokeColor=#9673a6;" vertex="1" parent="WIyWlLk6GJQsqaUBKTNV-1">
          <mxGeometry x="1220" y="480" width="120" height="60" as="geometry" />
        </mxCell>
        <mxCell id="53uy1DGqB0YoxCEGLnz8-20" value="Tener&lt;br&gt;" style="rhombus;whiteSpace=wrap;html=1;fillColor=#ffe6cc;strokeColor=#d79b00;" vertex="1" parent="WIyWlLk6GJQsqaUBKTNV-1">
          <mxGeometry x="1225" y="338.75" width="110" height="72.5" as="geometry" />
        </mxCell>
        <mxCell id="53uy1DGqB0YoxCEGLnz8-21" value="" style="endArrow=none;html=1;rounded=0;entryX=0.5;entryY=1;entryDx=0;entryDy=0;" edge="1" parent="WIyWlLk6GJQsqaUBKTNV-1" source="53uy1DGqB0YoxCEGLnz8-20" target="v5Hl_151OZphirrbcNyD-52">
          <mxGeometry width="50" height="50" relative="1" as="geometry">
            <mxPoint x="945" y="377.5" as="sourcePoint" />
            <mxPoint x="945" y="300.0000000000002" as="targetPoint" />
            <Array as="points">
              <mxPoint x="1280" y="320" />
            </Array>
          </mxGeometry>
        </mxCell>
        <mxCell id="53uy1DGqB0YoxCEGLnz8-22" value="" style="endArrow=none;html=1;rounded=0;exitX=0.5;exitY=0;exitDx=0;exitDy=0;entryX=0.5;entryY=1;entryDx=0;entryDy=0;" edge="1" parent="WIyWlLk6GJQsqaUBKTNV-1" source="53uy1DGqB0YoxCEGLnz8-19" target="53uy1DGqB0YoxCEGLnz8-20">
          <mxGeometry width="50" height="50" relative="1" as="geometry">
            <mxPoint x="945" y="377.5" as="sourcePoint" />
            <mxPoint x="945" y="300.0000000000002" as="targetPoint" />
          </mxGeometry>
        </mxCell>
        <mxCell id="53uy1DGqB0YoxCEGLnz8-23" value="" style="endArrow=none;html=1;rounded=0;entryX=1;entryY=1;entryDx=0;entryDy=0;" edge="1" parent="WIyWlLk6GJQsqaUBKTNV-1" source="v5Hl_151OZphirrbcNyD-58" target="53uy1DGqB0YoxCEGLnz8-19">
          <mxGeometry width="50" height="50" relative="1" as="geometry">
            <mxPoint x="1290" y="490" as="sourcePoint" />
            <mxPoint x="1290" y="421.25" as="targetPoint" />
          </mxGeometry>
        </mxCell>
        <mxCell id="53uy1DGqB0YoxCEGLnz8-24" value="" style="endArrow=none;html=1;rounded=0;exitX=0.5;exitY=1;exitDx=0;exitDy=0;" edge="1" parent="WIyWlLk6GJQsqaUBKTNV-1" source="53uy1DGqB0YoxCEGLnz8-19" target="v5Hl_151OZphirrbcNyD-56">
          <mxGeometry width="50" height="50" relative="1" as="geometry">
            <mxPoint x="1300" y="500" as="sourcePoint" />
            <mxPoint x="1300" y="431.25" as="targetPoint" />
          </mxGeometry>
        </mxCell>
        <mxCell id="53uy1DGqB0YoxCEGLnz8-25" value="" style="endArrow=none;html=1;rounded=0;exitX=1;exitY=0.5;exitDx=0;exitDy=0;entryX=0;entryY=0.5;entryDx=0;entryDy=0;" edge="1" parent="WIyWlLk6GJQsqaUBKTNV-1" source="v5Hl_151OZphirrbcNyD-57" target="53uy1DGqB0YoxCEGLnz8-19">
          <mxGeometry width="50" height="50" relative="1" as="geometry">
            <mxPoint x="1310" y="510" as="sourcePoint" />
            <mxPoint x="1310" y="441.25" as="targetPoint" />
          </mxGeometry>
        </mxCell>
        <mxCell id="53uy1DGqB0YoxCEGLnz8-31" value="" style="endArrow=none;html=1;rounded=0;entryX=1;entryY=1;entryDx=0;entryDy=0;exitX=0.5;exitY=0;exitDx=0;exitDy=0;" edge="1" parent="WIyWlLk6GJQsqaUBKTNV-1" source="v5Hl_151OZphirrbcNyD-52" target="53uy1DGqB0YoxCEGLnz8-0">
          <mxGeometry width="50" height="50" relative="1" as="geometry">
            <mxPoint x="1170" y="350" as="sourcePoint" />
            <mxPoint x="1220" y="300" as="targetPoint" />
          </mxGeometry>
        </mxCell>
        <mxCell id="53uy1DGqB0YoxCEGLnz8-32" value="" style="endArrow=none;html=1;rounded=0;entryX=1;entryY=0.5;entryDx=0;entryDy=0;exitX=0;exitY=0.5;exitDx=0;exitDy=0;" edge="1" parent="WIyWlLk6GJQsqaUBKTNV-1" source="v5Hl_151OZphirrbcNyD-54" target="v5Hl_151OZphirrbcNyD-52">
          <mxGeometry width="50" height="50" relative="1" as="geometry">
            <mxPoint x="1290" y="240.00000000000023" as="sourcePoint" />
            <mxPoint x="1255.3553390593277" y="191.21320343559682" as="targetPoint" />
          </mxGeometry>
        </mxCell>
        <mxCell id="53uy1DGqB0YoxCEGLnz8-33" value="" style="endArrow=none;html=1;rounded=0;entryX=0.5;entryY=1;entryDx=0;entryDy=0;exitX=0.75;exitY=0;exitDx=0;exitDy=0;" edge="1" parent="WIyWlLk6GJQsqaUBKTNV-1" source="v5Hl_151OZphirrbcNyD-52" target="53uy1DGqB0YoxCEGLnz8-3">
          <mxGeometry width="50" height="50" relative="1" as="geometry">
            <mxPoint x="1300" y="250.00000000000023" as="sourcePoint" />
            <mxPoint x="1265.3553390593277" y="201.21320343559682" as="targetPoint" />
          </mxGeometry>
        </mxCell>
      </root>
    </mxGraphModel>
  </diagram>
</mxfile>
